<svg xmlns="http://www.w3.org/2000/svg" viewBox="0 0 349.98 34.13"><path d="M46.36,20.38l1.06,1.42A7.58,7.58,0,0,1,41.93,24a7.11,7.11,0,0,1-7.22-7.39,7.06,7.06,0,0,1,7.18-7.23A7.26,7.26,0,0,1,47,11.29l-1,1.48A6.45,6.45,0,0,0,42,11.23a5.14,5.14,0,0,0-5.22,5.41A5.3,5.3,0,0,0,42,22.22,6.4,6.4,0,0,0,46.36,20.38Zm14.28-4.51H53.31V9.67h-2V23.8h2V17.6h7.33v6.2h2V9.67h-2Zm20.85.77a7.26,7.26,0,1,1-14.52,0,7.26,7.26,0,0,1,14.52,0Zm-2,0a5.22,5.22,0,1,0-10.44,0,5.23,5.23,0,1,0,10.44,0Zm20,0a7.26,7.26,0,1,1-14.52,0,7.26,7.26,0,0,1,14.52,0Zm-2,0a5.22,5.22,0,1,0-10.43,0,5.23,5.23,0,1,0,10.43,0Zm7.46-3.31a2.31,2.31,0,0,1,2.56-2.06,5,5,0,0,1,3.11,1.22l.9-1.64a5.78,5.78,0,0,0-4-1.43c-2.66,0-4.56,1.75-4.56,3.95,0,4.35,6.85,3.68,6.85,6.75a2.18,2.18,0,0,1-2.45,2.08,5.57,5.57,0,0,1-3.6-1.52l-1.12,1.5A6.61,6.61,0,0,0,107.26,24c2.81,0,4.49-1.8,4.49-4C111.75,15.47,104.9,16.25,104.9,13.33ZM116.1,23.8h2V9.67h-2Zm16.55-4.94c0,.78.14,2,.14,2h0s-.66-1.28-1.18-2l-6.29-9.19h-2V23.8h2V14.63c0-.8-.14-2.06-.14-2.06h0s.66,1.28,1.18,2.06l6.31,9.17h1.94V9.67h-2ZM148,16.69v1.73h2.3v2a5.77,5.77,0,0,1-4,1.76,5.2,5.2,0,0,1-5.21-5.55,5.15,5.15,0,0,1,5.33-5.44,6.5,6.5,0,0,1,4,1.38l1-1.48a7.7,7.7,0,0,0-5.15-1.71A7.12,7.12,0,0,0,139,16.71,7,7,0,0,0,146,24a6.08,6.08,0,0,0,4.34-1.72h.05s0,.3,0,.6v.88h1.75V16.69Z" fill="#8e9194"/><path d="M349.71,15c-5.78,5.14-14.85,7.78-22.35,9.88-1.3,4.06-3.87,9.29-8.49,9.29h0a3.61,3.61,0,0,1-3.8-2.8,4.66,4.66,0,0,1,2.68-5.11,64.46,64.46,0,0,1,8.35-2.68c.08-.29.16-.57.22-.81L327,20.2a10,10,0,0,1-3.64,2.11,1.28,1.28,0,0,1-1.36-.23c-.8-.73-.49-2.27.08-4.73.09-.39.21-.87.29-1.31A33.77,33.77,0,0,1,301,22.72a4.5,4.5,0,0,1-2.7,1.66c-2.64-.08-3.55-1.83-3.6-2.74a36.17,36.17,0,0,0-1.69,11.65.79.79,0,0,1-.76.83.75.75,0,0,1-.83-.76c0-.49-.28-7.85,2.35-13.83A23.6,23.6,0,0,1,281,23.83a18,18,0,0,1-4.47-.56c-1.36-.35-2.05-1.91-2.62-3.79-1.33,1.87-3.09,3.46-5.23,3.3-1.74-.11-2.72-1.36-2.63-3.32a7.47,7.47,0,0,1,.29-1.64c-3.65,2.59-10.24,6.2-17.51,6.2a2.5,2.5,0,0,1-2-.87c-1.09-1.39-.47-3.95,0-6a13.11,13.11,0,0,0,.31-1.46,1.78,1.78,0,0,0,0-.28,4.33,4.33,0,0,1-1.69-.51c-2.81,2.51-8.29,5.53-19.39,7.81-2.73.56-4.83.25-6.24-.93a5,5,0,0,1-1.67-3.67v0a4.26,4.26,0,0,1,0-.95,37.1,37.1,0,0,1-15.63,9.16,5.19,5.19,0,0,1-4.37-.26,5,5,0,0,1-2.05-3.7,19.16,19.16,0,0,1,0-2.54c0-1.37.07-4.51-.38-5.15a.78.78,0,0,0-.5.22c-1.15,1-1.32,4.73-1.39,6.12-.05.94-.08,1.57-.84,1.61s-.85-.44-1.12-2.23a14.13,14.13,0,0,1,.22-4.23c-5.12,4.29-13.73,11-20.53,11a8.21,8.21,0,0,1-1.41-.11,4.13,4.13,0,0,1-3.09-2.1c-1.5-2.59-1-7.21-.14-11.33a9.73,9.73,0,0,0-5.15,1.24.8.8,0,0,1-.89-1.32A11.26,11.26,0,0,1,167.29,12a65.23,65.23,0,0,1,2.09-6.76.79.79,0,0,1,1-.47.8.8,0,0,1,.47,1,63.08,63.08,0,0,0-2,6.34A18.12,18.12,0,0,1,174.41,14a.8.8,0,0,1,.35,1.07.78.78,0,0,1-.71.43.76.76,0,0,1-.36-.08,15.84,15.84,0,0,0-5.16-1.67c-.89,4-1.34,8.26-.09,10.4a2.59,2.59,0,0,0,1.95,1.33c6.9,1.07,17.57-7.94,22.11-11.79l.16-.13C194.12,8.13,197.15,2,200,.41a2.78,2.78,0,0,1,3.37.34,3.64,3.64,0,0,1,1.36,3c-.19,3.15-4.53,6.21-7.7,8.43l-1.2.86h.07c1.9.1,1.85,3.34,1.79,6.76a19.13,19.13,0,0,0,0,2.28,3.58,3.58,0,0,0,1.32,2.6,3.74,3.74,0,0,0,3.06.07A36.64,36.64,0,0,0,218.58,14.5l.45-.44,0,0a7.59,7.59,0,0,1,2.93-2.2,2,2,0,0,1,2.47,1c.67,1.53-.29,4.29-3,6.09a4.13,4.13,0,0,1-1.26.59,2.78,2.78,0,0,0,.77,1c1,.84,2.65,1,4.88.58,8.86-1.82,15.07-4.31,18.55-7.42a2.3,2.3,0,0,1,.22-2.07c.63-1.17,2.72-3,3.72-2.48a.94.94,0,0,1,.33,1.32c0,.08-.08.18-.12.29a10.36,10.36,0,0,1-1.79,2.9,2.87,2.87,0,0,0,.74.14,1.4,1.4,0,0,1,1.07.46,2,2,0,0,1,.24,1.59,14.21,14.21,0,0,1-.36,1.65c-.35,1.44-.94,3.86-.33,4.65.06.07.17.25.73.26,9.26,0,17.35-6.2,19-7.87,1-1.48,2.26-2.6,3.53-2.6h.05c1.56,0,2.37,1.56,3,3.44a21.61,21.61,0,0,0,.83-2.07.79.79,0,0,1,1-.5.8.8,0,0,1,.5,1,26,26,0,0,1-1.7,3.81c.45,1.7,1.06,3.87,1.87,4.07,8.37,2.16,15.77-3,19.1-5.84A10.44,10.44,0,0,1,302.75,12a2.24,2.24,0,0,1,2.39.77c.95,1.35,0,3.81-1,5.63a23.52,23.52,0,0,1-1.76,2.76,32,32,0,0,0,19.71-6.89c.69-.55,1.19-.44,1.48-.25.79.51.53,1.65,0,3.73a17.18,17.18,0,0,0-.53,3,8.76,8.76,0,0,0,5.13-5.08c.23-.8.41-1.39.56-1.81,0,0,0,0,0-.07a1.36,1.36,0,0,0,0-.2h.05c.35-.86.55-.81.92-.73.77.18.61,1,.55,1.25a12.33,12.33,0,0,1-.65,2.13c-.39,1.45-1,3.66-1.81,6.82,7.15-2,15.51-4.58,20.78-9.27A.8.8,0,1,1,349.71,15ZM318.39,27.66A3.11,3.11,0,0,0,316.61,31a2,2,0,0,0,2.25,1.54h0c3.35,0,5.46-4,6.62-7.18A54.56,54.56,0,0,0,318.39,27.66ZM196.11,10.89c2.58-1.81,6.89-4.84,7-7.23a2.14,2.14,0,0,0-.83-1.73,1.18,1.18,0,0,0-.8-.34,1.57,1.57,0,0,0-.75.23c-2.11,1.13-4.44,5.56-5.91,10Zm24.43,6.72c2.17-1.42,2.75-3.43,2.45-4.1,0-.09-.12-.26-.61-.13a6.94,6.94,0,0,0-2.09,1.67,7.55,7.55,0,0,0-.5,2.94A2.72,2.72,0,0,0,220.54,17.61Zm50.83-4.06h0c-1.3,0-3.63,3.37-3.75,6-.07,1.58.78,1.64,1.15,1.66,1.78.11,3.36-1.72,4.56-3.74C272.85,15.7,272.22,13.57,271.37,13.55Zm27,9.24a.88.88,0,0,0,.39-.17c-.58,0-1.15-.09-1.73-.15A2.88,2.88,0,0,0,298.39,22.79Zm4.83-6.15c.85-1.87.79-2.76.61-3s-.41-.17-.84-.11a8.77,8.77,0,0,0-5.1,2.66.66.66,0,0,1-.2.3l-.26.24A14.61,14.61,0,0,0,295,21l0,0a.83.83,0,0,1,.64-.22,9.22,9.22,0,0,1,1,.1c1.25.15,2.48.25,3.69.29A20.15,20.15,0,0,0,303.22,16.64ZM11.5,27.51h-.07C0,26.49,0,19,0,11.72a.79.79,0,0,1,.64-.78,10.78,10.78,0,0,1,2.54-.11,27,27,0,0,1-.37-5.27.79.79,0,0,1,.64-.78A11.43,11.43,0,0,1,13,8.13a.81.81,0,0,1,.09.1.43.43,0,0,0,.09-.1,11.44,11.44,0,0,1,9.59-3.35.79.79,0,0,1,.64.78,28,28,0,0,1-.36,5.28l.81,0a9.21,9.21,0,0,1,1.72.13.79.79,0,0,1,.65.78C26.27,21,25.21,27.51,11.5,27.51ZM1.59,12.43c0,7.51.72,12.25,8.88,13.35-.37-2-.71-6,1.62-9.22l-.09-.1c-.24-.23-.48-.44-.72-.65l0,0A13.64,13.64,0,0,0,1.59,12.43ZM11.94,9.28a10.21,10.21,0,0,0-7.53-3A20.86,20.86,0,0,0,4.86,11,15.25,15.25,0,0,1,11,13.55a8.43,8.43,0,0,1,1.19-4C12.07,9.43,12,9.35,11.94,9.28Zm2.39,0a6.73,6.73,0,0,0-1.77,5.55l.54.48,0,0,0,0A15.7,15.7,0,0,1,21.4,11a20.6,20.6,0,0,0,.46-4.76A10.14,10.14,0,0,0,14.33,9.28Zm10.34,3.15c-.21,0-.47,0-.77,0a13.9,13.9,0,0,0-9.63,4.06c-3.19,3.05-2.5,7.82-2.15,9.45C23.5,25.74,24.62,20.69,24.67,12.43Z" fill="#048a27"/></svg>